#!OML:ASF H:\Terrain\Patient Classification 1\Walking\liu\liu.ASF
:FULLY-SPECIFIED
:DEGREES
268
root 9.41923 16.0054 19.0431 8.95507 6.64927 5.68229
lowerback -5.43768 -6.49854 -8.17866
upperback -0.679483 -8.20604 1.236
thorax 3.65148 -4.21634 5.03956
lowerneck -19.3154 -1.46118 -11.9391
upperneck 20.1042 -1.74489 13.7911
head 9.77209 -0.165297 6.70656
rclavicle 7.39976e-014 4.37326e-015
rhumerus -54.6284 -0.739887 -68.7973
rradius 23.283
rwrist -8.33978
rhand -28.8582 -21.6922
rfingers 7.12502
rthumb -2.21474 -51.6604
lclavicle 7.39976e-014 4.37326e-015
lhumerus -8.85651 -22.5221 79.9127
lradius 35.5296
lwrist 6.07489
lhand -13.913 -26.6206
lfingers 7.12502
lthumb 12.213 3.00282
rfemur -52.015 0.811932 14.723
rtibia 48.1178
rfoot -5.00159 -3.96919
rtoes -20.7007
lfemur 30.7385 5.59316 -21.128
ltibia 6.67916e-014
lfoot 8.6866 0.591761
ltoes -15.7159
269
root 9.39913 16.004 19.2714 8.90296 6.47321 5.17664
lowerback -5.55535 -6.40541 -7.76403
upperback -0.561954 -8.09956 1.38852
thorax 3.78945 -4.16716 4.96565
lowerneck -19.7965 -1.5023 -11.7558
upperneck 20.2557 -1.78861 13.6566
head 9.92041 -0.172727 6.63575
rclavicle 9.29318e-014 -9.93923e-015
rhumerus -53.867 -1.12588 -68.7862
rradius 23.0713
rwrist -7.88674
rhand -28.2762 -22.4401
rfingers 7.12502
rthumb -1.65264 -52.4135
lclavicle 9.29318e-014 -9.93923e-015
lhumerus -9.52283 -22.9944 80.223
lradius 35.7562
lwrist 6.83053
lhand -14.1754 -26.7781
lfingers 7.12502
lthumb 11.96 2.86027
rfemur -51.6203 0.850592 15.678
rtibia 49.0475
rfoot -6.01368 -3.62188
rtoes -18.1309
lfemur 29.4846 6.00359 -20.2107
ltibia 3.25178
lfoot 10.2807 1.30008
ltoes -12.1928
270
root 9.37859 16.0311 19.5021 8.73263 6.38235 4.64638
lowerback -5.55937 -6.40264 -7.38876
upperback -0.400725 -8.12172 1.55639
thorax 3.937 -4.18388 4.92155
lowerneck -20.0679 -1.46604 -11.6157
upperneck 20.0969 -1.73362 13.6319
head 9.9063 -0.130145 6.60648
rclavicle 1.28862e-013 -2.14687e-014
rhumerus -53.1681 -0.731285 -69.5166
rradius 23.2128
rwrist -8.53761
rhand -28.8677 -23.3582
rfingers 7.12502
rthumb -2.22398 -53.3263
lclavicle 1.28862e-013 -2.14687e-014
lhumerus -10.2055 -23.2707 80.4938
lradius 35.7976
lwrist 7.46291
lhand -14.7455 -27.0039
lfingers 7.12502
lthumb 11.4102 2.66565
rfemur -50.8471 0.955817 16.5926
rtibia 49.5968
rfoot -6.87286 -3.56729
rtoes -14.6107
lfemur 24.4124 6.64105 -19.0971
ltibia 13.9251
lfoot 8.85202 0.545547
ltoes -11.6365
271
root 9.35168 16.0659 19.7214 8.49507 6.31762 3.74036
lowerback -5.19857 -6.31537 -6.63159
upperback -0.435628 -8.08733 1.78659
thorax 3.62217 -4.14843 4.79631
lowerneck -20.1461 -1.42826 -11.3662
upperneck 20.0431 -1.7266 13.5466
head 9.89861 -0.11428 6.53015
rclavicle -6.32632e-014 -4.77083e-015
rhumerus -52.9562 -0.105444 -70.4385
rradius 23.705
rwrist -9.39271
rhand -29.4035 -24.2362
rfingers 7.12502
rthumb -2.74136 -54.1984
lclavicle -6.32632e-014 -4.77083e-015
lhumerus -11.134 -23.5005 80.9104
lradius 35.6643
lwrist 7.74828
lhand -14.8353 -27.1293
lfingers 7.12502
lthumb 11.3236 2.54498
rfemur -49.851 1.31007 17.8466
rtibia 49.778
rfoot -7.65502 -3.65371
rtoes -11.6094
lfemur 21.6209 6.81049 -17.8862
ltibia 20.1991
lfoot 9.38967 0.408448
ltoes -13.4796
272
root 9.32432 16.1023 19.938 8.23974 6.30081 2.3902
lowerback -4.76128 -6.23511 -5.46677
upperback -0.559772 -8.08689 2.2024
thorax 3.14786 -4.12215 4.65004
lowerneck -20.0386 -1.34268 -11.3009
upperneck 20.0821 -1.62765 13.4917
head 9.87627 -0.0726259 6.51092
rclavicle 4.21423e-014 1.63003e-014
rhumerus -52.8291 0.475958 -71.1171
rradius 24.2008
rwrist -9.97565
rhand -29.4324 -24.8002
rfingers 7.12502
rthumb -2.76932 -54.762
lclavicle 4.21423e-014 1.63003e-014
lhumerus -12.3162 -23.3019 81.5238
lradius 35.6388
lwrist 7.89917
lhand -14.5838 -27.1274
lfingers 7.12502
lthumb 11.5662 2.53345
rfemur -48.7175 1.76161 19.5657
rtibia 49.6932
rfoot -8.51798 -3.74118
rtoes -11.3939
lfemur 19.2466 6.93276 -16.2232
ltibia 25.4971
lfoot 10.2271 0.303599
ltoes -14.0251
273
root 9.29427 16.141 20.1489 8.0643 6.30387 1.20154
lowerback -4.40902 -6.15338 -4.47961
upperback -0.665641 -8.05433 2.56548
thorax 2.75432 -4.08723 4.53685
lowerneck -20.317 -1.43294 -11.1286
upperneck 20.4379 -1.75458 13.2562
head 10.0697 -0.138115 6.39883
rclavicle 1.86361e-015 -7.95139e-016
rhumerus -52.6596 0.862366 -71.7267
rradius 24.6715
rwrist -10.4647
rhand -29.379 -23.9992
rfingers 7.12502
rthumb -2.71773 -53.9616
lclavicle 1.86361e-015 -7.95139e-016
lhumerus -13.4722 -23.076 82.1503
lradius 35.6614
lwrist 8.03124
lhand -14.4405 -26.9302
lfingers 7.12502
lthumb 11.7043 2.72288
rfemur -47.588 2.15007 21.1197
rtibia 49.4905
rfoot -9.35663 -3.85438
rtoes -13.0975
lfemur 16.8979 7.14765 -14.6767
ltibia 30.2867
lfoot 11.1371 0.368825
ltoes -13.4935
274
root 9.26753 16.1824 20.3562 7.98769 6.28463 0.426882
lowerback -4.40233 -6.00949 -3.84216
upperback -0.483336 -7.89772 2.72161
thorax 2.85781 -4.00862 4.35453
lowerneck -21.1575 -1.67344 -10.7494
upperneck 20.6727 -2.10342 13.0449
head 10.3583 -0.270116 6.2326
rclavicle 1.97542e-014 1.07344e-014
rhumerus -52.0784 0.97956 -72.5911
rradius 25.1953
rwrist -11.3739
rhand -29.6157 -23.4504
rfingers 7.12502
rthumb -2.94636 -53.4098
lclavicle 1.97542e-014 1.07344e-014
lhumerus -13.9666 -23.1268 82.5541
lradius 35.4628
lwrist 8.07748
lhand -14.296 -26.8152
lfingers 7.12502
lthumb 11.8437 2.82982
rfemur -46.499 2.34812 22.2483
rtibia 49.258
rfoot -10.1393 -3.90243
rtoes -14.6375
lfemur 14.5033 7.26175 -13.7181
ltibia 34.7558
lfoot 11.8691 0.958359
ltoes -11.8387
275
root 9.25874 16.2348 20.5611 7.95531 6.35082 0.0709585
lowerback -4.48225 -5.93217 -3.49959
upperback -0.245873 -7.81255 2.78609
thorax 3.10282 -3.97056 4.21861
lowerneck -21.4047 -1.61521 -10.8683
upperneck 20.3282 -2.05476 13.5489
head 10.2825 -0.190512 6.43976
rclavicle 1.36565e-013 -9.14409e-015
rhumerus -51.4755 1.21771 -73.423
rradius 25.812
rwrist -12.4097
rhand -30.3281 -24.9545
rfingers 7.12502
rthumb -3.63429 -54.9033
lclavicle 1.36565e-013 -9.14409e-015
lhumerus -14.2519 -23.0583 82.9666
lradius 35.0192
lwrist 8.04227
lhand -14.401 -27.1575
lfingers 7.12502
lthumb 11.7424 2.49336
rfemur -45.3638 2.22742 22.8347
rtibia 49.0003
rfoot -11.078 -3.6254
rtoes -15.3556
lfemur 12.1309 6.95184 -13.5294
ltibia 38.9216
lfoot 12.3675 2.37734
ltoes -7.74484
276
root 9.24804 16.2872 20.7524 7.95748 6.36535 -0.18055
lowerback -4.2965 -5.91373 -3.40404
upperback -0.286599 -7.80333 2.9844
thorax 2.97136 -3.96473 4.39391
lowerneck -20.0655 -1.38699 -11.579
upperneck 19.0283 -1.68978 14.2574
head 9.53296 -0.033786 6.78604
rclavicle -8.88567e-014 7.15625e-015
rhumerus -51.2249 1.86709 -74.0544
rradius 26.5464
rwrist -13.4069
rhand -30.9251 -25.766
rfingers 7.12502
rthumb -4.21083 -55.7041
lclavicle -8.88567e-014 7.15625e-015
lhumerus -15.0294 -22.6147 83.6914
lradius 34.6221
lwrist 7.96755
lhand -14.479 -27.4537
lfingers 7.12502
lthumb 11.6672 2.20146
rfemur -44.2931 2.18583 23.2606
rtibia 48.6774
rfoot -12.0113 -3.28242
rtoes -16.8707
lfemur 9.75165 6.78967 -13.4245
ltibia 42.8567
lfoot 9.82473 4.15128
ltoes -15.467
277
root 9.22816 16.3349 20.9434 7.95162 6.19512 -0.5112
lowerback -4.13298 -5.82894 -3.34185
upperback -0.270655 -7.70348 3.18811
thorax 2.90646 -3.91635 4.59565
lowerneck -21.8776 -1.84171 -10.5172
upperneck 20.5177 -2.22534 12.6069
head 10.448 -0.337911 6.0139
rclavicle -9.09937e-014 1.19271e-014
rhumerus -50.6041 2.65339 -74.9363
rradius 27.0542
rwrist -14.5884
rhand -30.6827 -22.3044
rfingers 7.12502
rthumb -3.9767 -52.247
lclavicle -9.09937e-014 1.19271e-014
lhumerus -15.8104 -22.1593 84.3433
lradius 34.3733
lwrist 7.84747
lhand -14.3249 -27.2641
lfingers 7.12502
lthumb 11.8158 2.38255
rfemur -43.2374 2.31946 23.8559
rtibia 48.2428
rfoot -12.6331 -3.18162
rtoes -18.8884
lfemur 7.44158 6.97156 -13.1093
ltibia 46.5686
lfoot 8.27879 5.63107
ltoes -12.7255
278
root 9.21101 16.3875 21.1326 8.01623 6.04236 -0.704656
lowerback -3.98538 -5.63022 -3.28467
upperback -0.262737 -7.44529 3.23905
thorax 2.80353 -3.78589 4.65556
lowerneck -21.4534 -2.02072 -11.0876
upperneck 19.8104 -2.42434 13.2359
head 10.1593 -0.411881 6.2812
rclavicle -1.04362e-014 -4.77083e-015
rhumerus -49.8513 2.9861 -75.7306
rradius 27.3331
rwrist -15.338
rhand -29.9123 -18.8093
rfingers 7.12502
rthumb -3.23281 -48.7646
lclavicle -1.04362e-014 -4.77083e-015
lhumerus -16.3816 -21.9542 84.9884
lradius 33.8676
lwrist 7.40296
lhand -14.4512 -27.1303
lfingers 7.12502
lthumb 11.6941 2.52332
rfemur -42.2407 2.31303 24.3129
rtibia 47.7113
rfoot -13.0355 -3.09257
rtoes -18.9983
lfemur 4.99261 6.97891 -13.0906
ltibia 50.0503
lfoot 8.24344 6.97818
ltoes -3.26843
279
root 9.20229 16.4454 21.3187 8.11993 5.89104 -0.892684
lowerback -3.67764 -5.29939 -2.99097
upperback -0.547136 -7.01566 3.18673
thorax 2.24778 -3.55235 4.52399
lowerneck -20.5686 -2.14642 -11.4523
upperneck 19.3773 -2.6311 13.6362
head 9.88213 -0.515918 6.43039
rclavicle -4.76089e-014 -5.1684e-015
rhumerus -49.9311 3.17149 -76.4992
rradius 28.2461
rwrist -16.2511
rhand -29.6819 -20.3575
rfingers 7.12502
rthumb -3.01025 -50.316
lclavicle -4.76089e-014 -5.1684e-015
lhumerus -17.2995 -21.9197 85.8977
lradius 33.1362
lwrist 6.69398
lhand -14.4701 -27.1368
lfingers 7.12502
lthumb 11.6757 2.5179
rfemur -41.2686 2.2664 24.6753
rtibia 47.1033
rfoot -13.4895 -2.76811
rtoes -18.1343
lfemur 2.49544 6.96525 -13.188
ltibia 53.2542
lfoot 6.57124 8.24601
ltoes -4.66104
280
root 9.19737 16.4996 21.5084 8.16698 5.66326 -1.0905
lowerback -3.40188 -5.03596 -2.68783
upperback -0.819118 -6.67402 3.13214
thorax 1.73611 -3.36518 4.36784
lowerneck -19.8485 -2.19905 -11.7622
upperneck 19.1666 -2.75864 14.0358
head 9.70364 -0.576695 6.59538
rclavicle 1.24489e-014 -1.15295e-014
rhumerus -50.1734 3.98301 -77.6903
rradius 29.5152
rwrist -17.7883
rhand -29.5364 -24.7368
rfingers 7.12502
rthumb -2.86971 -54.6973
lclavicle 1.24489e-014 -1.15295e-014
lhumerus -18.4379 -21.8769 86.6663
lradius 32.6288
lwrist 6.39856
lhand -14.0483 -26.7677
lfingers 7.12502
lthumb 12.0826 2.86342
rfemur -40.1944 2.37729 24.9869
rtibia 46.4543
rfoot -13.976 -2.46976
rtoes -17.7365
lfemur 0.229569 7.13835 -13.253
ltibia 56.1345
lfoot 5.05932 9.34727
ltoes -4.67569
281
root 9.18398 16.5534 21.698 8.27179 5.53152 -1.15158
lowerback -3.41657 -4.94801 -2.78471
upperback -0.90258 -6.553 3.17562
thorax 1.66225 -3.30293 4.47778
lowerneck -19.6319 -2.20266 -11.7954
upperneck 19.0032 -2.78451 14.1351
head 9.61245 -0.58716 6.62346
rclavicle 3.54582e-014 4.37326e-015
rhumerus -49.8644 5.19959 -78.992
rradius 30.3469
rwrist -19.2126
rhand -28.9388 -28.0356
rfingers 7.12502
rthumb -2.29265 -58.003
lclavicle 3.54582e-014 4.37326e-015
lhumerus -19.3202 -21.4957 87.2046
lradius 32.2442
lwrist 6.36219
lhand -13.3687 -26.2666
lfingers 7.12502
lthumb 12.7378 3.32491
rfemur -39.1739 2.51768 25.1719
rtibia 45.7845
rfoot -14.4152 -2.35165
rtoes -16.2655
lfemur -2.09991 7.19483 -13.4229
ltibia 58.748
lfoot 3.70293 10.3816
ltoes -4.94123
282
root 9.1674 16.6036 21.8891 8.40469 5.36405 -1.31878
lowerback -3.78356 -4.81724 -2.88004
upperback -0.748827 -6.37351 3.27656
thorax 2.02978 -3.22332 4.60673
lowerneck -20.6457 -2.48603 -11.2973
upperneck 19.6548 -3.13918 13.4796
head 10.0653 -0.754726 6.28672
rclavicle -1.48095e-014 1.55052e-014
rhumerus -49.0076 5.99397 -79.9431
rradius 30.8433
rwrist -19.9851
rhand -29.0706 -29.0399
rfingers 7.12502
rthumb -2.41992 -59.0059
lclavicle -1.48095e-014 1.55052e-014
lhumerus -19.7479 -20.8697 87.6351
lradius 31.7844
lwrist 6.13304
lhand -12.8201 -26.0227
lfingers 7.12502
lthumb 13.2666 3.53504
rfemur -38.2151 2.59999 25.5455
rtibia 45.068
rfoot -14.6378 -2.18108
rtoes -13.9627
lfemur -4.43907 7.12539 -13.5306
ltibia 61.0775
lfoot 2.23098 11.3721
ltoes -4.79518
